<svg xmlns="http://www.w3.org/2000/svg" width="54" height="40" fill="none" viewBox="0 0 54 40"><g clip-path="url(#a)"><path fill="#b22234" d="M53.7 0H.3v40h53.4z"/><path fill="#000" d="M.3 4.7h53.4Zm53.4 6.1H.3ZM.3 16.9h53.4Zm53.4 6.2H.3ZM.3 29.2h53.4Zm53.4 6.1H.3Z"/><path fill="#fff" fill-rule="evenodd" d="M53.7 6.4H.3v-3h53.4zM.3 9.4h53.4v3H.3zm53.4 9H.3v-3h53.4zM.3 21.6h53.4v3H.3zm53.4 9.1H.3v-3h53.4zm-53.4 3h53.4v3H.3z" clip-rule="evenodd"/><path fill="#3c3b6e" d="M30.7 0H.3v21.5h30.4z"/><path fill="#fff" d="m2.9 1 .7 2-1.9-1.2H4L2.1 3zm0 4.2.7 2.3L1.7 6H4L2.1 7.5zm0 4.3.7 2.3-1.9-1.4H4l-1.9 1.4zm0 4.3.7 2.3-1.9-1.4H4l-1.9 1.4zm0 4.4.7 2.2L1.7 19H4l-1.9 1.4zM5.4 3l.7 2.3-1.9-1.4h2.4l-2 1.4zm0 4.4.7 2.2-1.9-1.4h2.4l-2 1.4zm0 4.3.7 2.2-1.9-1.4h2.4l-2 1.4zm0 4.3.7 2.2L4.2 17h2.4l-2 1.3zM8 1l.6 2-2-1.3H9L7.2 3zm0 4.2.7 2.3-2-1.4h2.4L7.2 7.5zm0 4.3.7 2.3-2-1.4h2.4l-1.9 1.4zm0 4.3.7 2.3-2-1.4h2.4l-1.9 1.4zm0 4.4.7 2.2-2-1.4h2.4l-1.9 1.4zM10.5 3l.7 2.3-1.9-1.4h2.3L9.7 5.3zm0 4.4.7 2.2-1.9-1.4h2.3L9.7 9.6zm0 4.3.7 2.2-1.9-1.4h2.3L9.7 14zm0 4.3.7 2.2L9.3 17h2.3l-1.9 1.3zM13 1l.7 2.1-1.9-1.3h2.4l-2 1.3zm0 4.2.7 2.3L11.8 6h2.4l-2 1.4zm0 4.3.7 2.3-1.9-1.4h2.4l-2 1.4zm0 4.3.7 2.3-1.9-1.4h2.4l-2 1.4zm0 4.4.7 2.2-1.9-1.4h2.4l-2 1.4zM15.5 3l.8 2.3-2-1.4h2.4l-1.9 1.4zm0 4.4.8 2.2-2-1.4h2.4l-1.9 1.4zm0 4.3.8 2.2-2-1.4h2.4L14.8 14zm0 4.3.8 2.2-2-1.3h2.4l-1.9 1.3zM18 1l.8 2.1-1.9-1.3h2.3L17.3 3zm0 4.2.8 2.3L16.9 6h2.3l-1.9 1.4zm0 4.3.8 2.3-1.9-1.4h2.3l-1.9 1.4zm0 4.3.8 2.3-1.9-1.4h2.3l-1.9 1.4zm0 4.4.8 2.2-1.9-1.4h2.3l-1.9 1.4zM20.6 3l.7 2.3-1.9-1.4h2.4l-2 1.4zm0 4.4.7 2.2-1.9-1.4h2.4l-2 1.4zm0 4.3.7 2.2-1.9-1.4h2.4l-2 1.4zm0 4.3.7 2.2-1.9-1.3h2.4l-2 1.3zm2.5-15 .9 2-2-1.3h2.4l-2 1.3zm0 4.2.8 2.3-2-1.4h2.4l-1.9 1.4zm0 4.3.8 2.3-2-1.4h2.4l-1.9 1.4zm0 4.3.8 2.3-2-1.4h2.4l-1.9 1.4zm0 4.4.8 2.2-2-1.4h2.4l-1.9 1.4zM25.7 3l.7 2.3-1.9-1.4h2.3L25 5.3zm0 4.4.7 2.2-1.9-1.4h2.3L25 9.6zm0 4.3.7 2.2-1.9-1.4h2.3L25 14zm0 4.3.7 2.2-1.9-1.3h2.3L25 18.2zm2.5-15 .7 2.1L27 1.8h2.4l-2 1.3zm0 4.2.7 2.3L27 6h2.4l-2 1.4zm0 4.3.7 2.3-1.9-1.4h2.4l-2 1.4zm0 4.3.7 2.3-1.9-1.4h2.4l-2 1.4zm0 4.4.7 2.2L27 19h2.4l-2 1.4z"/></g><defs><clipPath id="a"><path fill="#fff" d="M.3 0h53.3v40H.3z"/></clipPath></defs></svg>